<svg width="503" height="173" viewBox="0 0 503 173" fill="none" xmlns="http://www.w3.org/2000/svg">
<path d="M167.149 90.3589C165.411 90.3589 163.933 90.1593 162.717 89.7109C161.5 89.3123 160.501 88.7142 159.762 87.9667C158.98 87.2189 158.415 86.3719 158.067 85.3254C157.72 84.2788 157.546 83.1325 157.546 81.8867V55.2739H163.325V81.9363C163.325 84.0793 164.585 85.1757 167.149 85.1757H186.137C188.701 85.1757 189.961 84.0793 189.961 81.9363V55.2739H195.74V81.8867C195.74 83.1325 195.653 84.2788 195.436 85.3254C195.219 86.3719 194.785 87.2189 194.176 87.9667C193.524 88.7142 192.699 89.3123 191.612 89.7109C190.526 90.1593 189.092 90.3589 187.354 90.3589H167.149ZM238.975 90.3589L206.343 63.0485V90.3589H201.259V55.2739H206.299L236.716 81.3384V55.2739H241.8V90.3589H238.975ZM256.791 90.3589C255.053 90.3589 253.575 90.1593 252.359 89.7109C251.142 89.3123 250.142 88.7142 249.404 87.9667C248.622 87.2189 248.057 86.3719 247.709 85.3254C247.362 84.2788 247.188 83.1325 247.188 81.8867V63.7464C247.188 62.5002 247.362 61.3542 247.709 60.3076C248.057 59.2611 248.622 58.3639 249.404 57.6164C250.142 56.8689 251.142 56.3204 252.359 55.872C253.575 55.4734 255.053 55.2739 256.791 55.2739H276.996C278.734 55.2739 280.211 55.4734 281.428 55.872C282.645 56.3204 283.644 56.8689 284.427 57.6164C285.165 58.3639 285.73 59.2611 286.078 60.3076C286.425 61.3542 286.599 62.5002 286.599 63.7464V81.8867C286.599 83.1325 286.425 84.2788 286.078 85.3254C285.73 86.3719 285.165 87.2189 284.427 87.9667C283.644 88.7142 282.645 89.3123 281.428 89.7109C280.211 90.1593 278.734 90.3589 276.996 90.3589H256.791ZM280.82 63.6965C280.82 61.5532 279.56 60.457 276.996 60.457H256.791C254.227 60.457 252.967 61.5532 252.967 63.6965V81.9363C252.967 84.0793 254.227 85.1757 256.791 85.1757H276.996C279.56 85.1757 280.82 84.0793 280.82 81.9363V63.6965ZM292.422 90.3589V85.1757H319.015C321.578 85.1757 322.838 84.0793 322.838 81.9363V77.5009C322.838 75.3579 321.578 74.2618 319.015 74.2618H301.025C299.287 74.2618 297.81 74.0622 296.593 73.6138C295.377 73.2152 294.377 72.6171 293.638 71.8696C292.856 71.1221 292.291 70.2748 291.944 69.2283C291.596 68.1814 291.422 67.0354 291.422 65.7896V63.7464C291.422 62.5002 291.596 61.3542 291.944 60.3076C292.291 59.2611 292.856 58.3639 293.638 57.6164C294.377 56.8689 295.377 56.3204 296.593 55.872C297.81 55.4734 299.287 55.2739 301.025 55.2739H326.923V60.457H301.025C298.462 60.457 297.201 61.5532 297.201 63.6965V65.8395C297.201 67.9824 298.462 69.0786 301.025 69.0786H319.015C320.753 69.0786 322.23 69.2782 323.447 69.6767C324.663 70.1252 325.663 70.6737 326.445 71.4212C327.184 72.1687 327.748 73.0655 328.096 74.1124C328.443 75.1589 328.617 76.305 328.617 77.5508V81.8867C328.617 83.1325 328.443 84.2788 328.096 85.3254C327.748 86.3719 327.184 87.2189 326.445 87.9667C325.663 88.7142 324.663 89.3123 323.447 89.7109C322.23 90.1593 320.753 90.3589 319.015 90.3589H292.422Z" fill="#1E66B1"/>
<path d="M382.366 75.9064V90.3589H376.586V55.2739H408.046V60.457H382.366V70.7233H406.308V75.9064H382.366ZM411.174 90.3589V55.2739H442.634V60.457H416.954V69.2283H441.33V74.4111H416.954V85.1757H442.634V90.3589H411.174Z" fill="#1E66B1"/>
<path d="M367.244 90.3589L351.471 62.1017L335.437 90.3589H329.007L349.342 55.2739H353.557L373.762 90.3589H367.244Z" fill="#ED1C24"/>
<path d="M158.42 117.726V100.716H173.672V103.229H161.222V107.481H173.041V109.994H161.222V115.213H173.672V117.726H158.42ZM176.053 117.726V100.716H178.855V115.213H190.884V117.726H176.053ZM192.864 117.726V100.716H208.116V103.229H195.666V107.481H207.484V109.994H195.666V115.213H208.116V117.726H192.864Z" fill="#1E66B1"/>
<path d="M269.803 117.726C268.96 117.726 268.244 117.629 267.654 117.412C267.064 117.218 266.58 116.929 266.222 116.566C265.842 116.204 265.568 115.793 265.4 115.286C265.231 114.778 265.147 114.222 265.147 113.618V104.823C265.147 104.219 265.231 103.664 265.4 103.156C265.568 102.649 265.842 102.214 266.222 101.852C266.58 101.489 267.064 101.223 267.654 101.006C268.244 100.813 268.96 100.716 269.803 100.716H279.599C280.442 100.716 281.158 100.813 281.748 101.006C282.337 101.223 282.822 101.489 283.201 101.852C283.559 102.214 283.833 102.649 284.002 103.156C284.17 103.664 284.254 104.219 284.254 104.823V113.618C284.254 114.222 284.17 114.778 284.002 115.286C283.833 115.793 283.559 116.204 283.201 116.566C282.822 116.929 282.337 117.218 281.748 117.412C281.158 117.629 280.442 117.726 279.599 117.726H269.803ZM281.453 104.799C281.453 103.76 280.842 103.229 279.599 103.229H269.803C268.56 103.229 267.949 103.76 267.949 104.799V113.642C267.949 114.681 268.56 115.213 269.803 115.213H279.599C280.842 115.213 281.453 114.681 281.453 113.642V104.799ZM300.981 117.726L297.506 110.139H289.69V117.726H286.888V100.716H299.486C300.328 100.716 301.045 100.813 301.635 101.006C302.224 101.223 302.709 101.489 303.088 101.852C303.446 102.214 303.72 102.649 303.889 103.156C304.057 103.664 304.141 104.219 304.141 104.823V106.032C304.141 107.119 303.867 108.037 303.299 108.762C302.73 109.511 301.803 109.946 300.476 110.091L303.973 117.726H300.981ZM301.339 104.799C301.339 103.76 300.729 103.229 299.486 103.229H289.69V107.626H299.486C300.729 107.626 301.339 107.095 301.339 106.056V104.799ZM319.731 111.444V117.726H316.929V100.716H329.084C329.927 100.716 330.643 100.813 331.233 101.006C331.823 101.223 332.307 101.489 332.687 101.852C333.045 102.214 333.318 102.649 333.487 103.156C333.656 103.664 333.74 104.219 333.74 104.823V107.336C333.74 107.94 333.656 108.496 333.487 109.003C333.318 109.511 333.045 109.922 332.687 110.284C332.307 110.646 331.823 110.936 331.233 111.13C330.643 111.347 329.927 111.444 329.084 111.444H319.731ZM330.938 104.799C330.938 103.76 330.327 103.229 329.084 103.229H319.731V108.931H329.084C330.327 108.931 330.938 108.399 330.938 107.36V104.799ZM344.189 117.726L334.33 100.716H337.511L345.263 114.416L352.931 100.716H356.028L346.232 117.726H344.189ZM364.286 117.726V103.229H356.513V100.716H374.651V103.229H367.088V117.726H364.286ZM387.059 117.726V100.716H389.861V115.213H401.89V117.726H387.059ZM410.759 117.726V103.229H402.986V100.716H421.124V103.229H413.561V117.726H410.759ZM422.999 117.726V100.716H436.587C437.64 100.716 438.525 100.813 439.22 101.03C439.915 101.248 440.484 101.562 440.905 101.972C441.327 102.383 441.622 102.915 441.811 103.543C441.98 104.171 442.064 104.896 442.064 105.742V112.869C442.064 113.667 441.98 114.367 441.811 114.971C441.622 115.576 441.327 116.083 440.905 116.494C440.484 116.904 439.915 117.194 439.22 117.412C438.525 117.629 437.64 117.726 436.587 117.726H422.999ZM439.262 105.742C439.262 105.259 439.22 104.848 439.136 104.533C439.052 104.219 438.904 103.954 438.715 103.76C438.504 103.567 438.23 103.422 437.893 103.35C437.535 103.277 437.113 103.229 436.587 103.229H425.801V115.213H436.587C437.113 115.213 437.535 115.165 437.893 115.092C438.23 115.02 438.504 114.875 438.715 114.706C438.904 114.536 439.052 114.295 439.136 113.981C439.22 113.667 439.262 113.304 439.262 112.845V105.742Z" fill="#1E66B1"/>
<path d="M218.986 117.726L209.126 100.716H212.307L220.06 114.416L227.728 100.716H230.825L221.029 117.726H218.986Z" fill="#1E66B1"/>
<path d="M245.145 117.726L237.497 104.026L229.724 117.726H226.606L236.465 100.716H238.509L248.305 117.726H245.145Z" fill="#1E66B1"/>
<path d="M253.3 117.726L253.2 103.229H245.427V100.716H263.565V103.229H256.002V117.726H253.3Z" fill="#1E66B1"/>
<path fill-rule="evenodd" clip-rule="evenodd" d="M101.134 45.7315C123.65 45.7315 141.902 63.9838 141.902 86.4994C141.902 109.015 123.65 127.267 101.134 127.267C78.6193 127.267 60.3667 109.015 60.3667 86.4994C60.3667 63.9838 78.6193 45.7315 101.134 45.7315Z" fill="#D1D3D4"/>
<path d="M101.134 45.7315C123.65 45.7315 141.902 63.9838 141.902 86.4994C141.902 109.015 123.65 127.267 101.134 127.267C78.6193 127.267 60.3667 109.015 60.3667 86.4994C60.3667 63.9838 78.6193 45.7315 101.134 45.7315Z" stroke="#231F20" stroke-width="1.52832" stroke-miterlimit="2.61313"/>
<path fill-rule="evenodd" clip-rule="evenodd" d="M101.137 67.1717C112.263 67.1717 121.283 76.1914 121.283 87.3179C121.283 98.4442 112.263 107.464 101.137 107.464C90.0107 107.464 80.9909 98.4442 80.9909 87.3179C80.9909 76.1914 90.0107 67.1717 101.137 67.1717Z" fill="white"/>
<path d="M101.137 67.1717C112.263 67.1717 121.283 76.1914 121.283 87.3179C121.283 98.4442 112.263 107.464 101.137 107.464C90.0107 107.464 80.9909 98.4442 80.9909 87.3179C80.9909 76.1914 90.0107 67.1717 101.137 67.1717Z" stroke="#231F20" stroke-width="1.52837" stroke-miterlimit="2.61313"/>
<path fill-rule="evenodd" clip-rule="evenodd" d="M123.703 91.3862L100.908 57.7454C93.3215 68.8285 85.7349 79.9113 78.1483 90.9942C93.8867 102.075 107.252 101.172 123.703 91.3862Z" fill="#00AEEF"/>
<path d="M123.703 91.3862L100.908 57.7454C93.3215 68.8285 85.7349 79.9113 78.1483 90.9942C93.8867 102.075 107.252 101.172 123.703 91.3862Z" stroke="#231F20" stroke-width="1.14625" stroke-miterlimit="2.61313"/>
<path fill-rule="evenodd" clip-rule="evenodd" d="M118.822 93.0264L100.897 66.513C94.7614 75.4756 89.0812 83.7478 82.9461 92.7106C96.7189 101.363 105.47 100.94 118.822 93.0264Z" fill="#00AEEF"/>
<path d="M118.822 93.0264L100.897 66.513C94.7614 75.4756 89.0812 83.7478 82.9461 92.7106C96.7189 101.363 105.47 100.94 118.822 93.0264Z" stroke="#231F20" stroke-width="1.1462" stroke-miterlimit="2.61313"/>
<path fill-rule="evenodd" clip-rule="evenodd" d="M113.403 94.8319L100.889 76.3697C96.9306 82.152 92.3279 88.8698 88.3695 94.6519C97.2792 100.4 104.837 100.198 113.403 94.8319Z" fill="#00AEEF"/>
<path d="M113.403 94.8319L100.889 76.3697C96.9306 82.152 92.3279 88.8698 88.3695 94.6519C97.2792 100.4 104.837 100.198 113.403 94.8319Z" stroke="#231F20" stroke-width="1.1462" stroke-miterlimit="2.61313"/>
<path fill-rule="evenodd" clip-rule="evenodd" d="M123.703 117.42L100.908 83.7793C93.3215 94.8619 85.7349 105.945 78.1483 117.028C93.8867 128.108 107.252 127.205 123.703 117.42Z" fill="#00AEEF"/>
<path d="M123.703 117.42L100.908 83.7793C93.3215 94.8619 85.7349 105.945 78.1483 117.028C93.8867 128.108 107.252 127.205 123.703 117.42Z" stroke="#231F20" stroke-width="1.14625" stroke-miterlimit="2.61313"/>
<path fill-rule="evenodd" clip-rule="evenodd" d="M118.822 119.06L100.897 92.5458C94.7614 101.509 89.0812 109.781 82.9461 118.743C96.7189 127.395 105.47 126.973 118.822 119.06Z" fill="#00AEEF"/>
<path d="M118.822 119.06L100.897 92.5458C94.7614 101.509 89.0812 109.781 82.9461 118.743C96.7189 127.395 105.47 126.973 118.822 119.06Z" stroke="#231F20" stroke-width="1.1462" stroke-miterlimit="2.61313"/>
<path fill-rule="evenodd" clip-rule="evenodd" d="M113.403 120.865L100.889 102.403C96.9306 108.185 92.3279 114.902 88.3695 120.685C97.2792 126.433 104.837 126.232 113.403 120.865Z" fill="#00AEEF"/>
<path d="M113.403 120.865L100.889 102.403C96.9306 108.185 92.3279 114.902 88.3695 120.685C97.2792 126.433 104.837 126.232 113.403 120.865Z" stroke="#231F20" stroke-width="1.1462" stroke-miterlimit="2.61313"/>
<path d="M0.25 0.249908H502.75V172.75H0.25V0.249908Z" stroke="white" stroke-width="0.5" stroke-miterlimit="2.61313"/>
</svg>
