<svg xmlns="http://www.w3.org/2000/svg" xmlns:xlink="http://www.w3.org/1999/xlink" xmlns:inkscape="http://www.inkscape.org/namespaces/inkscape" version="1.1" width="595.2756" height="841.8898" viewBox="0 0 595.2756 841.8898">
<g inkscape:groupmode="layer" inkscape:label="Layer 1">
<path transform="matrix(1,0,0,-1,0,841.8898)" d="M204.8094 467.6598C203.0712 467.6598 201.5938 467.8594 200.3774 468.3078 199.1605 468.7064 198.1613 469.3045 197.4226 470.052 196.6402 470.7998 196.0756 471.6468 195.7277 472.6933 195.3802 473.7399 195.2065 474.8862 195.2065 476.132V502.7448H200.9857V476.0824C200.9857 473.9394 202.2457 472.843 204.8094 472.843H223.7981C226.3618 472.843 227.6218 473.9394 227.6218 476.0824V502.7448H233.401V476.132C233.401 474.8862 233.314 473.7399 233.0969 472.6933 232.8797 471.6468 232.4452 470.7998 231.8369 470.052 231.1849 469.3045 230.3595 468.7064 229.2729 468.3078 228.1867 467.8594 226.7529 467.6598 225.0147 467.6598ZM276.6359 467.6598 244.0032 494.9702V467.6598H238.9192V502.7448H243.9601L274.3767 476.6803V502.7448H279.4606V467.6598ZM294.4514 467.6598C292.7134 467.6598 291.236 467.8594 290.0191 468.3078 288.8028 468.7064 287.803 469.3045 287.0646 470.052 286.2825 470.7998 285.7175 471.6468 285.3697 472.6933 285.0222 473.7399 284.8484 474.8862 284.8484 476.132V494.2723C284.8484 495.5185 285.0222 496.6645 285.3697 497.7111 285.7175 498.7576 286.2825 499.6548 287.0646 500.4023 287.803 501.1498 288.8028 501.6983 290.0191 502.1467 291.236 502.5453 292.7134 502.7448 294.4514 502.7448H314.6567C316.3946 502.7448 317.8721 502.5453 319.089 502.1467 320.3053 501.6983 321.3051 501.1498 322.0872 500.4023 322.8256 499.6548 323.3906 498.7576 323.7384 497.7111 324.0859 496.6645 324.2597 495.5185 324.2597 494.2723V476.132C324.2597 474.8862 324.0859 473.7399 323.7384 472.6933 323.3906 471.6468 322.8256 470.7998 322.0872 470.052 321.3051 469.3045 320.3053 468.7064 319.089 468.3078 317.8721 467.8594 316.3946 467.6598 314.6567 467.6598ZM318.4804 494.3222C318.4804 496.4655 317.2204 497.5617 314.6567 497.5617H294.4514C291.8877 497.5617 290.6277 496.4655 290.6277 494.3222V476.0824C290.6277 473.9394 291.8877 472.843 294.4514 472.843H314.6567C317.2204 472.843 318.4804 473.9394 318.4804 476.0824ZM330.0823 467.6598V472.843H356.6752C359.2386 472.843 360.4989 473.9394 360.4989 476.0824V480.5178C360.4989 482.6608 359.2386 483.7569 356.6752 483.7569H338.6857C336.9478 483.7569 335.4704 483.9565 334.2535 484.4049 333.0371 484.8035 332.0376 485.4016 331.2989 486.1491 330.5169 486.8966 329.9519 487.7439 329.6044 488.7904 329.2569 489.8373 329.0828 490.9833 329.0828 492.2291V494.2723C329.0828 495.5185 329.2569 496.6645 329.6044 497.7111 329.9519 498.7576 330.5169 499.6548 331.2989 500.4023 332.0376 501.1498 333.0371 501.6983 334.2535 502.1467 335.4704 502.5453 336.9478 502.7448 338.6857 502.7448H364.5833V497.5617H338.6857C336.1221 497.5617 334.8621 496.4655 334.8621 494.3222V492.1792C334.8621 490.0363 336.1221 488.9401 338.6857 488.9401H356.6752C358.4132 488.9401 359.8906 488.7405 361.1072 488.342 362.3238 487.8935 363.3233 487.345 364.1054 486.5975 364.8441 485.85 365.4091 484.9532 365.7566 483.9063 366.1041 482.8598 366.2779 481.7137 366.2779 480.4679V476.132C366.2779 474.8862 366.1041 473.7399 365.7566 472.6933 365.4091 471.6468 364.8441 470.7998 364.1054 470.052 363.3233 469.3045 362.3238 468.7064 361.1072 468.3078 359.8906 467.8594 358.4132 467.6598 356.6752 467.6598Z" fill="#1e66b1"/>
<path transform="matrix(1,0,0,-1,0,841.8898)" d="M420.0262 482.1123V467.6598H414.2469V502.7448H445.7064V497.5617H420.0262V487.2954H443.9684V482.1123ZM448.835 467.6598V502.7448H480.2944V497.5617H454.6142V488.7904H478.9908V483.6076H454.6142V472.843H480.2944V467.6598Z" fill="#1e66b1"/>
<path transform="matrix(1,0,0,-1,0,841.8898)" d="M404.905 467.6598 389.1319 495.917 373.098 467.6598H366.6671L387.0026 502.7448H391.2177L411.4227 467.6598Z" fill="#ed1c24"/>
<path transform="matrix(1,0,0,-1,0,841.8898)" d="M196.0809 440.2928V457.3026H211.333V454.7897H198.883V450.5374H210.7012V448.0245H198.883V442.8057H211.333V440.2928ZM213.7136 440.2928V457.3026H216.5156V442.8057H228.5444V440.2928ZM230.5247 440.2928V457.3026H245.7768V454.7897H233.3265V450.5374H245.145V448.0245H233.3265V442.8057H245.7768V440.2928Z" fill="#1e66b1"/>
<path transform="matrix(1,0,0,-1,0,841.8898)" d="M307.4635 440.2928C306.6211 440.2928 305.9048 440.3894 305.3149 440.6071 304.725 440.8002 304.2403 441.0901 303.8822 441.4527 303.503 441.815 303.2291 442.2257 303.0608 442.7331 302.8921 443.2405 302.8079 443.7964 302.8079 444.4002V453.1952C302.8079 453.7993 302.8921 454.3549 303.0608 454.8623 303.2291 455.3697 303.503 455.8045 303.8822 456.1671 304.2403 456.5293 304.725 456.7952 305.3149 457.0126 305.9048 457.206 306.6211 457.3026 307.4635 457.3026H317.2595C318.1022 457.3026 318.8186 457.206 319.4084 457.0126 319.998 456.7952 320.4828 456.5293 320.862 456.1671 321.2201 455.8045 321.4939 455.3697 321.6626 454.8623 321.8309 454.3549 321.9151 453.7993 321.9151 453.1952V444.4002C321.9151 443.7964 321.8309 443.2405 321.6626 442.7331 321.4939 442.2257 321.2201 441.815 320.862 441.4527 320.4828 441.0901 319.998 440.8002 319.4084 440.6071 318.8186 440.3894 318.1022 440.2928 317.2595 440.2928ZM319.1134 453.2193C319.1134 454.2582 318.5025 454.7897 317.2595 454.7897H307.4635C306.2205 454.7897 305.6097 454.2582 305.6097 453.2193V444.3763C305.6097 443.3372 306.2205 442.8057 307.4635 442.8057H317.2595C318.5025 442.8057 319.1134 443.3372 319.1134 444.3763ZM338.6421 440.2928 335.1662 447.8797H327.3503V440.2928H324.5485V457.3026H337.1462C337.989 457.3026 338.7053 457.206 339.2952 457.0126 339.8851 456.7952 340.3695 456.5293 340.7488 456.1671 341.1068 455.8045 341.3806 455.3697 341.5493 454.8623 341.7177 454.3549 341.8021 453.7993 341.8021 453.1952V451.9871C341.8021 450.8997 341.528 449.9816 340.9594 449.2568 340.3905 448.5078 339.4636 448.073 338.1364 447.9279L341.6335 440.2928ZM339.0001 453.2193C339.0001 454.2582 338.3892 454.7897 337.1462 454.7897H327.3503V450.3923H337.1462C338.3892 450.3923 339.0001 450.9238 339.0001 451.963ZM357.3913 446.5749V440.2928H354.5895V457.3026H366.7448C367.5875 457.3026 368.3038 457.206 368.8937 457.0126 369.4836 456.7952 369.968 456.5293 370.3473 456.1671 370.7053 455.8045 370.9791 455.3697 371.1478 454.8623 371.3162 454.3549 371.4007 453.7993 371.4007 453.1952V450.6823C371.4007 450.0782 371.3162 449.5226 371.1478 449.0152 370.9791 448.5078 370.7053 448.0971 370.3473 447.7346 369.968 447.3723 369.4836 447.0823 368.8937 446.889 368.3038 446.6716 367.5875 446.5749 366.7448 446.5749ZM368.5986 453.2193C368.5986 454.2582 367.9877 454.7897 366.7448 454.7897H357.3913V449.0878H366.7448C367.9877 449.0878 368.5986 449.6193 368.5986 450.6582ZM381.8494 440.2928 371.9903 457.3026H375.1716L382.9238 443.6031 390.5921 457.3026H393.6889L383.8929 440.2928ZM401.9468 440.2928V454.7897H394.1734V457.3026H412.3117V454.7897H404.7489V440.2928ZM424.7201 440.2928V457.3026H427.5218V442.8057H439.5509V440.2928ZM448.4197 440.2928V454.7897H440.6462V457.3026H458.7846V454.7897H451.2217V440.2928ZM460.6594 440.2928V457.3026H474.2476C475.3006 457.3026 476.1856 457.206 476.8807 456.9885 477.576 456.7711 478.1446 456.457 478.5659 456.0463 478.9874 455.6356 479.2822 455.1041 479.4718 454.4759 479.6405 453.8475 479.7247 453.1226 479.7247 452.2771V445.1494C479.7247 444.352 479.6405 443.6512 479.4718 443.0472 479.2822 442.4431 478.9874 441.9357 478.5659 441.525 478.1446 441.1145 477.576 440.8245 476.8807 440.6071 476.1856 440.3894 475.3006 440.2928 474.2476 440.2928ZM476.9229 452.2771C476.9229 452.7601 476.8807 453.1711 476.7965 453.4852 476.7123 453.7993 476.5646 454.0649 476.3752 454.2582 476.1643 454.4515 475.8905 454.5967 475.5535 454.6689 475.1955 454.7415 474.774 454.7897 474.2476 454.7897H463.4614V442.8057H474.2476C474.774 442.8057 475.1955 442.8541 475.5535 442.9264 475.8905 442.999 476.1643 443.1438 476.3752 443.3131 476.5646 443.4823 476.7123 443.7238 476.7965 444.0379 476.8807 444.352 476.9229 444.7145 476.9229 445.1734Z" fill="#1e66b1"/>
<path transform="matrix(1,0,0,-1,0,841.8898)" d="M256.6463 440.2928 246.7871 457.3026H249.9681L257.7206 443.6031 265.3889 457.3026H268.4854L258.6898 440.2928Z" fill="#1e66b1"/>
<path transform="matrix(1,0,0,-1,0,841.8898)" d="M282.8052 440.2928 275.1579 453.9926 267.3845 440.2928H264.2666L274.1258 457.3026H276.1693L285.9653 440.2928Z" fill="#1e66b1"/>
<path transform="matrix(1,0,0,-1,0,841.8898)" d="M290.9605 440.2928 290.861 454.7897H283.0876V457.3026H301.2259V454.7897H293.6631V440.2928Z" fill="#1e66b1"/>
<path transform="matrix(.21685,0,0,-.21685,0,841.8898)" d="M640.0505 2362.4039C743.881 2362.4039 828.051 2278.234 828.051 2174.4034 828.051 2070.5755 743.881 1986.404 640.0505 1986.404 536.2228 1986.404 452.0511 2070.5755 452.0511 2174.4034 452.0511 2278.234 536.2228 2362.4039 640.0505 2362.4039Z" fill="#d1d3d4" fill-rule="evenodd"/>
<path transform="matrix(.21685,0,0,-.21685,0,841.8898)" stroke-width="7.0478" stroke-linecap="butt" stroke-miterlimit="2.6131259" stroke-linejoin="miter" fill="none" stroke="#231f20" d="M640.0505 2362.4039C743.881 2362.4039 828.051 2278.234 828.051 2174.4034 828.051 2070.5755 743.881 1986.404 640.0505 1986.404 536.2228 1986.404 452.0511 2070.5755 452.0511 2174.4034 452.0511 2278.234 536.2228 2362.4039 640.0505 2362.4039Z"/>
<path transform="matrix(.10716,0,0,-.10716,0,841.8898)" d="M1295.2359 4580.5056C1399.0663 4580.5056 1483.237 4496.3347 1483.237 4392.504 1483.237 4288.676 1399.0663 4204.5056 1295.2359 4204.5056 1191.4078 4204.5056 1107.237 4288.676 1107.237 4392.504 1107.237 4496.3347 1191.4078 4580.5056 1295.2359 4580.5056Z" fill="#ffffff" fill-rule="evenodd"/>
<path transform="matrix(.10716,0,0,-.10716,0,841.8898)" stroke-width="14.2625" stroke-linecap="butt" stroke-miterlimit="2.6131259" stroke-linejoin="miter" fill="none" stroke="#231f20" d="M1295.2359 4580.5056C1399.0663 4580.5056 1483.237 4496.3347 1483.237 4392.504 1483.237 4288.676 1399.0663 4204.5056 1295.2359 4204.5056 1191.4078 4204.5056 1107.237 4288.676 1107.237 4392.504 1107.237 4496.3347 1191.4078 4580.5056 1295.2359 4580.5056Z"/>
<path transform="matrix(.19006,0,0,-.19006,0,841.8898)" d="M849.0144 2455.1856 729.0788 2632.1868C689.1619 2573.873 649.245 2515.5609 609.3281 2457.2484 692.1357 2398.948 762.4556 2403.6998 849.0144 2455.1856Z" fill="#00aeef" fill-rule="evenodd"/>
<path transform="matrix(.19006,0,0,-.19006,0,841.8898)" stroke-width="6.031" stroke-linecap="butt" stroke-miterlimit="2.6131259" stroke-linejoin="miter" fill="none" stroke="#231f20" d="M849.0144 2455.1856 729.0788 2632.1868C689.1619 2573.873 649.245 2515.5609 609.3281 2457.2484 692.1357 2398.948 762.4556 2403.6998 849.0144 2455.1856Z"/>
<path transform="matrix(.1537,0,0,-.1537,0,841.8898)" d="M1018.101 3025.3243 901.4777 3197.8258C861.5614 3139.5133 824.6052 3085.693 784.6889 3027.379 874.2977 2971.0877 931.2307 2973.839 1018.101 3025.3243Z" fill="#00aeef" fill-rule="evenodd"/>
<path transform="matrix(.1537,0,0,-.1537,0,841.8898)" stroke-width="7.4574" stroke-linecap="butt" stroke-miterlimit="2.6131259" stroke-linejoin="miter" fill="none" stroke="#231f20" d="M1018.101 3025.3243 901.4777 3197.8258C861.5614 3139.5133 824.6052 3085.693 784.6889 3027.379 874.2977 2971.0877 931.2307 2973.839 1018.101 3025.3243Z"/>
<path transform="matrix(.09916,0,0,-.09916,0,841.8898)" d="M1523.4358 4671.1047 1397.2323 4857.291C1357.3131 4798.9777 1310.8963 4731.2307 1270.9772 4672.92 1360.8289 4614.952 1437.0457 4616.9846 1523.4358 4671.1047Z" fill="#00aeef" fill-rule="evenodd"/>
<path transform="matrix(.09916,0,0,-.09916,0,841.8898)" stroke-width="11.5591" stroke-linecap="butt" stroke-miterlimit="2.6131259" stroke-linejoin="miter" fill="none" stroke="#231f20" d="M1523.4358 4671.1047 1397.2323 4857.291C1357.3131 4798.9777 1310.8963 4731.2307 1270.9772 4672.92 1360.8289 4614.952 1437.0457 4616.9846 1523.4358 4671.1047Z"/>
<path transform="matrix(.19006,0,0,-.19006,0,841.8898)" d="M849.0144 2318.2088 729.0788 2495.2086C689.1619 2436.8975 649.245 2378.5853 609.3281 2320.2716 692.1357 2261.971 762.4556 2266.7227 849.0144 2318.2088Z" fill="#00aeef" fill-rule="evenodd"/>
<path transform="matrix(.19006,0,0,-.19006,0,841.8898)" stroke-width="6.031" stroke-linecap="butt" stroke-miterlimit="2.6131259" stroke-linejoin="miter" fill="none" stroke="#231f20" d="M849.0144 2318.2088 729.0788 2495.2086C689.1619 2436.8975 649.245 2378.5853 609.3281 2320.2716 692.1357 2261.971 762.4556 2266.7227 849.0144 2318.2088Z"/>
<path transform="matrix(.1537,0,0,-.1537,0,841.8898)" d="M1018.101 2855.9476 901.4777 3028.4505C861.5614 2970.136 824.6052 2916.3145 784.6889 2858.0037 874.2977 2801.7125 931.2307 2804.4625 1018.101 2855.9476Z" fill="#00aeef" fill-rule="evenodd"/>
<path transform="matrix(.1537,0,0,-.1537,0,841.8898)" stroke-width="7.4574" stroke-linecap="butt" stroke-miterlimit="2.6131259" stroke-linejoin="miter" fill="none" stroke="#231f20" d="M1018.101 2855.9476 901.4777 3028.4505C861.5614 2970.136 824.6052 2916.3145 784.6889 2858.0037 874.2977 2801.7125 931.2307 2804.4625 1018.101 2855.9476Z"/>
<path transform="matrix(.09916,0,0,-.09916,0,841.8898)" d="M1523.4358 4408.5725 1397.2323 4594.7565C1357.3131 4536.446 1310.8963 4468.7019 1270.9772 4410.3879 1360.8289 4352.42 1437.0457 4354.449 1523.4358 4408.5725Z" fill="#00aeef" fill-rule="evenodd"/>
<path transform="matrix(.09916,0,0,-.09916,0,841.8898)" stroke-width="11.5591" stroke-linecap="butt" stroke-miterlimit="2.6131259" stroke-linejoin="miter" fill="none" stroke="#231f20" d="M1523.4358 4408.5725 1397.2323 4594.7565C1357.3131 4536.446 1310.8963 4468.7019 1270.9772 4410.3879 1360.8289 4352.42 1437.0457 4354.449 1523.4358 4408.5725Z"/>
<path transform="matrix(1,0,0,-1,0,841.8898)" stroke-width=".5" stroke-linecap="butt" stroke-miterlimit="2.6131259" stroke-linejoin="miter" fill="none" stroke="#ffffff" d="M37.9106 557.7687H540.4107V385.2686H37.9106Z"/>
</g>
</svg>
